<?xml version="1.0" standalone="no"?><!DOCTYPE svg PUBLIC "-//W3C//DTD SVG 1.1//EN" "http://www.w3.org/Graphics/SVG/1.1/DTD/svg11.dtd"><svg t="1610180999764" class="icon" viewBox="0 0 1024 1024" version="1.1" xmlns="http://www.w3.org/2000/svg" p-id="8037" xmlns:xlink="http://www.w3.org/1999/xlink" width="200" height="200"><defs><style type="text/css"></style></defs><path d="M492.578295 570.312047l-2.986642 349.249357c-0.213332 24.592862 37.998617 24.618462 38.203415 0l2.986642-349.249357c0.213332-24.592862-37.998617-24.609928-38.203415 0" fill="#0098FF" p-id="8038"></path><path d="M604.0483 91.706969a24.080866 24.080866 0 0 1 24.080866 24.089399v83.643037a24.080866 24.080866 0 1 1-48.161732 0V115.796368A24.080866 24.080866 0 0 1 604.0483 91.698436" fill="#63CDFF" p-id="8039"></path><path d="M416.316531 91.706969a24.080866 24.080866 0 0 1 24.072332 24.089399v83.643037a24.080866 24.080866 0 1 1-48.161732 0V115.796368A24.080866 24.080866 0 0 1 416.316531 91.698436" fill="#63CDFF" p-id="8040"></path><path d="M600.78006 668.453096c0 55.679536-40.558595 100.81196-90.589112 100.81196-50.03905 0-90.606178-45.140957-90.606178-100.81196" fill="#63CDFF" p-id="8041"></path><path d="M392.602595 191.21334h235.168174C674.737844 191.21334 713.163124 229.630086 713.163124 276.614228V610.896243c0 46.975609-38.42528 85.400888-85.392355 85.400888H392.602595C345.63552 696.314197 307.201707 657.880384 307.201707 610.904776V276.614228C307.201707 229.630086 345.63552 191.21334 392.602595 191.21334" fill="#0098FF" p-id="8042"></path><path d="M584.054866 398.85321h-51.19104l39.918601-74.956176a13.806818 13.806818 0 0 0-12.176965-20.309164h-80.468663c-5.666086 0-10.811643 3.524237-12.885226 8.81486L421.905817 429.658286c-3.532771 9.036725 3.208507 18.773177 12.86816 18.773177h41.667919l-29.636019 92.116566c-5.051691 15.64147 14.634545 27.212573 25.821651 15.17214l122.622978-131.045308c9.198857-9.813252 2.218648-25.821651-11.178573-25.821651" fill="#FBE201" p-id="8043"></path><path d="M678.646078 938.402847H509.098691a19.105974 19.105974 0 1 1 0-38.211949h169.55592a19.105974 19.105974 0 1 1 0 38.211949" fill="#0098FF" p-id="8044"></path></svg>